<mxfile host="Electron" agent="Mozilla/5.0 (Windows NT 10.0; Win64; x64) AppleWebKit/537.36 (KHTML, like Gecko) draw.io/26.0.16 Chrome/132.0.6834.196 Electron/34.2.0 Safari/537.36" version="26.0.16">
  <diagram name="Page-1" id="kI9cF2XhJDRM0jUC9x1M">
    <mxGraphModel dx="1324" dy="1899" grid="1" gridSize="10" guides="1" tooltips="1" connect="1" arrows="1" fold="1" page="1" pageScale="1" pageWidth="850" pageHeight="1100" math="0" shadow="0">
      <root>
        <mxCell id="0" />
        <mxCell id="1" parent="0" />
        <mxCell id="CPrRFJp9YcycPksbXi16-13" style="edgeStyle=orthogonalEdgeStyle;rounded=0;orthogonalLoop=1;jettySize=auto;html=1;" edge="1" parent="1" source="CPrRFJp9YcycPksbXi16-4">
          <mxGeometry relative="1" as="geometry">
            <mxPoint x="390" y="85" as="targetPoint" />
          </mxGeometry>
        </mxCell>
        <mxCell id="CPrRFJp9YcycPksbXi16-4" value="User" style="html=1;whiteSpace=wrap;strokeColor=none;fillColor=#0079D6;labelPosition=center;verticalLabelPosition=middle;verticalAlign=top;align=center;fontSize=12;outlineConnect=0;spacingTop=-6;fontColor=#FFFFFF;sketch=0;shape=mxgraph.sitemap.user;" vertex="1" parent="1">
          <mxGeometry x="40" y="50" width="120" height="70" as="geometry" />
        </mxCell>
        <mxCell id="CPrRFJp9YcycPksbXi16-12" style="edgeStyle=orthogonalEdgeStyle;rounded=0;orthogonalLoop=1;jettySize=auto;html=1;entryX=0;entryY=0.5;entryDx=0;entryDy=0;" edge="1" parent="1" source="CPrRFJp9YcycPksbXi16-5" target="CPrRFJp9YcycPksbXi16-6">
          <mxGeometry relative="1" as="geometry" />
        </mxCell>
        <mxCell id="CPrRFJp9YcycPksbXi16-5" value="" style="verticalLabelPosition=bottom;html=1;verticalAlign=top;align=center;strokeColor=none;fillColor=#00BEF2;shape=mxgraph.azure.computer;pointerEvents=1;" vertex="1" parent="1">
          <mxGeometry x="670" y="54.25" width="100" height="71.5" as="geometry" />
        </mxCell>
        <mxCell id="CPrRFJp9YcycPksbXi16-6" value="" style="image;html=1;image=img/lib/clip_art/computers/Database_128x128.png" vertex="1" parent="1">
          <mxGeometry x="960" y="20" width="80" height="140" as="geometry" />
        </mxCell>
        <mxCell id="CPrRFJp9YcycPksbXi16-7" value="" style="image;aspect=fixed;perimeter=ellipsePerimeter;html=1;align=center;shadow=0;dashed=0;spacingTop=3;image=img/lib/active_directory/web_server.svg;" vertex="1" parent="1">
          <mxGeometry x="400" y="45" width="72" height="90" as="geometry" />
        </mxCell>
        <mxCell id="CPrRFJp9YcycPksbXi16-11" style="edgeStyle=orthogonalEdgeStyle;rounded=0;orthogonalLoop=1;jettySize=auto;html=1;entryX=0;entryY=0.5;entryDx=0;entryDy=0;entryPerimeter=0;" edge="1" parent="1" source="CPrRFJp9YcycPksbXi16-7" target="CPrRFJp9YcycPksbXi16-5">
          <mxGeometry relative="1" as="geometry" />
        </mxCell>
        <mxCell id="CPrRFJp9YcycPksbXi16-20" value="     DATABASE     &#xa;        MySQL" style="text;whiteSpace=wrap;fillColor=#99CCFF;" vertex="1" parent="1">
          <mxGeometry x="950" y="-30" width="100" height="40" as="geometry" />
        </mxCell>
        <mxCell id="CPrRFJp9YcycPksbXi16-23" value="  APACHE SERVER&#xa;                + &#xa;              PHP" style="text;whiteSpace=wrap;fillColor=#99CCFF;" vertex="1" parent="1">
          <mxGeometry x="655" y="-30" width="130" height="50" as="geometry" />
        </mxCell>
        <mxCell id="CPrRFJp9YcycPksbXi16-24" value="         SQL Queries" style="text;whiteSpace=wrap;fillColor=#99CCFF;" vertex="1" parent="1">
          <mxGeometry x="655" y="180" width="130" height="40" as="geometry" />
        </mxCell>
        <mxCell id="CPrRFJp9YcycPksbXi16-25" value="       MySQL" style="text;whiteSpace=wrap;fillColor=#99CCFF;" vertex="1" parent="1">
          <mxGeometry x="960" y="180" width="100" height="40" as="geometry" />
        </mxCell>
        <mxCell id="CPrRFJp9YcycPksbXi16-26" value="        Web Browser&#xa;        (HTML, CSS)" style="text;whiteSpace=wrap;fillColor=#99CCFF;" vertex="1" parent="1">
          <mxGeometry x="371" y="-30" width="130" height="50" as="geometry" />
        </mxCell>
        <mxCell id="CPrRFJp9YcycPksbXi16-27" value="&lt;p style=&quot;&quot; class=&quot;MsoNormal&quot;&gt;&lt;b&gt;&lt;span style=&quot;font-size:18.0pt;&lt;br/&gt;line-height:115%;color:#215F9A;mso-themecolor:text2;mso-themetint:191;&lt;br/&gt;mso-style-textfill-fill-color:#215F9A;mso-style-textfill-fill-themecolor:text2;&lt;br/&gt;mso-style-textfill-fill-alpha:100.0%;mso-style-textfill-fill-colortransforms:&lt;br/&gt;&amp;quot;lumm=75000 lumo=25000&amp;quot;&quot;&gt;Travel Booking System Architecture&lt;/span&gt;&lt;/b&gt;&lt;/p&gt;" style="text;html=1;whiteSpace=wrap;overflow=hidden;rounded=0;align=center;fillColor=#DDDDDD;" vertex="1" parent="1">
          <mxGeometry x="40" y="-180" width="1030" height="60" as="geometry" />
        </mxCell>
        <mxCell id="CPrRFJp9YcycPksbXi16-28" value="HTTP Request (GET, POST)" style="text;whiteSpace=wrap;fillColor=#99CCFF;" vertex="1" parent="1">
          <mxGeometry x="371" y="180" width="159" height="40" as="geometry" />
        </mxCell>
        <mxCell id="CPrRFJp9YcycPksbXi16-29" value="&lt;li data-end=&quot;606&quot; data-start=&quot;580&quot;&gt;Browse Destinations 🌍&lt;/li&gt;&lt;li data-end=&quot;631&quot; data-start=&quot;610&quot;&gt;Booking System 📅&lt;/li&gt;&lt;li data-end=&quot;658&quot; data-start=&quot;635&quot;&gt;Reviews &amp;amp; Ratings ⭐&lt;/li&gt;&lt;li data-end=&quot;687&quot; data-start=&quot;662&quot;&gt;Wishlist/Favorites ❤️&lt;/li&gt;" style="text;html=1;align=left;verticalAlign=middle;whiteSpace=wrap;rounded=0;" vertex="1" parent="1">
          <mxGeometry x="371" y="230" width="189" height="80" as="geometry" />
        </mxCell>
        <mxCell id="CPrRFJp9YcycPksbXi16-30" value="&lt;b&gt;FRONTEND&lt;/b&gt;" style="text;html=1;align=center;verticalAlign=middle;whiteSpace=wrap;rounded=0;" vertex="1" parent="1">
          <mxGeometry x="383" y="-90" width="85" height="30" as="geometry" />
        </mxCell>
        <mxCell id="CPrRFJp9YcycPksbXi16-31" value="&lt;b&gt;BACKEND&lt;/b&gt;" style="text;html=1;align=center;verticalAlign=middle;whiteSpace=wrap;rounded=0;" vertex="1" parent="1">
          <mxGeometry x="670" y="-90" width="85" height="30" as="geometry" />
        </mxCell>
        <mxCell id="CPrRFJp9YcycPksbXi16-32" value="&lt;li data-end=&quot;606&quot; data-start=&quot;580&quot;&gt;&lt;span style=&quot;background-color: transparent; color: light-dark(rgb(0, 0, 0), rgb(255, 255, 255));&quot;&gt;User Registration/Login 🔐&lt;/span&gt;&lt;/li&gt;&lt;li data-end=&quot;808&quot; data-start=&quot;778&quot;&gt;User Profile Management 👤&lt;/li&gt;&lt;li data-end=&quot;834&quot; data-start=&quot;812&quot;&gt;Cancel a Booking ❌&lt;/li&gt;&lt;li data-end=&quot;865&quot; data-start=&quot;838&quot;&gt;Reschedule a Booking 🔄&lt;/li&gt;&lt;li data-end=&quot;895&quot; data-start=&quot;869&quot;&gt;Email Notifications 📧&lt;/li&gt;" style="text;html=1;align=left;verticalAlign=middle;whiteSpace=wrap;rounded=0;" vertex="1" parent="1">
          <mxGeometry x="655" y="240" width="189" height="80" as="geometry" />
        </mxCell>
        <mxCell id="CPrRFJp9YcycPksbXi16-33" value="&lt;li data-end=&quot;606&quot; data-start=&quot;580&quot;&gt;&lt;span style=&quot;background-color: transparent; color: light-dark(rgb(0, 0, 0), rgb(255, 255, 255));&quot;&gt;Users Table&lt;/span&gt;&lt;/li&gt;&lt;li data-end=&quot;808&quot; data-start=&quot;778&quot;&gt;Flights Table&lt;/li&gt;&lt;li data-end=&quot;808&quot; data-start=&quot;778&quot;&gt;Seats Table&lt;/li&gt;&lt;li data-end=&quot;834&quot; data-start=&quot;812&quot;&gt;Bookings Table&lt;/li&gt;&lt;li data-end=&quot;865&quot; data-start=&quot;838&quot;&gt;Passenger&amp;nbsp;Table&lt;/li&gt;" style="text;html=1;align=left;verticalAlign=middle;whiteSpace=wrap;rounded=0;" vertex="1" parent="1">
          <mxGeometry x="960" y="240" width="189" height="80" as="geometry" />
        </mxCell>
      </root>
    </mxGraphModel>
  </diagram>
</mxfile>
